
<?xml version="1.0" encoding="utf-8"?>
<!-- Generator: Adobe Illustrator 19.0.0, SVG Export Plug-In . SVG Version: 6.00 Build 0)  -->
<svg version="1.1" id="Layer_1" xmlns="http://www.w3.org/2000/svg" xmlns:xlink="http://www.w3.org/1999/xlink" x="0px" y="0px"
	 viewBox="0 0 265 127.5" style="enable-background:new 0 0 265 127.5;" xml:space="preserve">
<style type="text/css">
	.st0{fill:none;stroke:#010101;stroke-miterlimit:10;}
	.st1{fill:#010101;}
	.st2{fill:none;stroke:#000000;stroke-miterlimit:10;}
</style>
<g id="XMLID_56_">
	<path id="XMLID_9_" class="st0" d="M246.5716553,75.9849014c-0.4791718-0.6041718-0.1666718,0.375-1-1.4583359
		c-0.8333435-1.8333359-1.5-3.5833359-2.8333435-5.6666641c-1.3333282-2.0833359-2.0833282-3.0833359-3.5-5.6666679
		c-1.4166565-2.5833359-2-3.6666679-3.1666565-5.8333359c-1.1666718-2.1666641-3.0833435-3.6666641-5-5.8333321
		c-1.9166718-2.1666679-3.3333435-3.5833321-5.6666718-5.6666679c-2.3333282-2.0833321-4.0833282-4.4166641-6-6.8333321
		s-2.5-3.6666679-4-5.8333321c-1.2722168-1.8376484-1.885025-4.0349693-3.8213043-6.3885937
		c-0.3466797-0.4214039-0.7357788-0.8478165-1.1786957-1.2780743c0,0-2.0625,0.3125-2.875,1s-1.5625,1.354166-2.0416718,2.416666
		c-0.4791565,1.0625-0.5,1.9791679-0.5,2.9166679c0,0.9374981-0.0208282,1.770834,0.4583435,2.958334
		c0.4791565,1.1875,0.875,2.375,1.375,3.4166641c0.5,1.0416679,1.4375,3.3333359,2.4166565,5.0833359
		c0.9791718,1.75,2.2916718,4.3541641,3.0833435,5.75c0.7916565,1.3958321,1.1458282,1.8541641,1.875,3.1666641
		c0.7291565,1.3125,2.0833282,3.4166679,2.0833282,3.4166679s-0.5625,3.2916679-0.5,4.1666679
		s0.1041718,2.4791641,0.2083282,3.5833321c0.1041718,1.1041641,0.125,1.7083359,0.6666718,3.5s0.8333282,2.875,1.125,4.5
		s0.25,2.2083359,0.5,3.7083359s-0.375,1.9375,0.5833282,3.7916641c0.9583435,1.8541641,1.7708435,3.6458359,2.5,4.375
		c0.7291718,0.7291641,2.5416718,2.6458359,3.4583435,3.375"/>
	<path id="XMLID_12_" class="st0" d="M211.5091553,27.0057316c0,0-0.2395935,0.5416679-0.1666718,1.1041679
		s0.15625,1.2708321,0.4166718,1.916666c0.2604065,0.645834,0.3541565,1.21875,0.8333282,1.770834
		s0.8645782,0.760416,1.3541718,0.791666c0.4895782,0.03125,0.7916565,0,0.7916565,0"/>
	<path id="XMLID_8_" class="st0" d="M245.3216553,73.3599014c0,0,1.7083282,1.2083282,3.375,1.7083282
		c1.6666565,0.5,2.1666565,0.6875,3.5,0.8333359c1.3333282,0.1458359,1.1458282-0.0208359,2.625,0
		c1.4791565,0.0208359,1.8541565,0.0583572,3,0.0604248"/>
	<path id="XMLID_13_" class="st0" d="M255.8424835,109.1515656c-3.46875-1.34375-5.34375-2.09375-8.125-2.8125
		s-4.1875-1.625-7.375-2.0625s-3.71875-0.28125-7-0.4375s-4.375,0.09375-7.1875,0s-5.15625-0.0625-8.125-1
		s-4.09375-1.0625-6.875-2.5s-5.0375977-2.625-8.1437988-4.4375s-3.2312012-2.3125-5.6062012-4s-3.875-2.59375-4.0625-4.3125
		s-0.34375-2.5625,0-3.125s0.90625-0.84375,2.3125-0.75s1.71875,0.1207199,3.125-0.0177689
		c1.40625-0.1384811,1.59375-0.5134811,3.6875-0.6072311s2.78125-0.21875,4.4375,0s2.1875,0.28125,4.125,0.6875
		s2.0625,0.09375,3.4375,0.3125s1.875,0.78125,2.0625,1.5625s0.125,1.0625,0.0625,1.9375s-0.4375,1.3125-1.125,1.9375
		s-1.4375,0.625-2.5625,1.125s-1.96875,0.6875-3.4375,0.75s-2.09375,0.3125-3.625,0.5625s-1.59375,0.28125-3.125,0.4375
		s-2.8125,0.328125-3.75,0.375"/>
	<path id="XMLID_14_" class="st0" d="M216.1966553,66.2349014c-0.5833435,0-0.625,0.0416641-1.2083435-0.0416718
		c-0.5833282-0.0833282-0.6041565-0.0416641-1.5-0.0416641c-0.8958282,0-2.8125-0.0208359-3.9166565,0
		c-1.1041718,0.0208359-3.4375,0.0208359-4-0.25s-1.7291718-0.6041641-3.3333435-1.1666641
		c-1.6041565-0.5625-3.4583282-1.0000038-4.5416565-1.3333359c-1.0833435-0.3333321-2.6666718-0.9791679-3.3333435-1
		c-0.6666565-0.0208321-1.2916565,0.1041679-2.2083282,0.7916679s-1.6458282,1.2291679-2.125,2.2916679
		s-0.1458282,2.125,0,3.6666641s0.8654785,3.1361771,2.625,4.625c0.2708282,0.2291641,2.125,0.3958359,3.25,0.5
		s2.1875,0.375,3.4166718,0.375c1.2291565,0,2.3374023,0,3.6895294,0s2.1854706-0.0625,3.3521271,0.2083359
		c1.1666718,0.2708282,2.5,0.5625,3.75,0.4583282c1.25-0.1041641,1.6041718-0.2916641,2.5416718-0.375
		c0.9375-0.0833282,1.9583282-0.1875,2.875-0.4583282c0.9166718-0.2708359,1.0625-0.2083359,1.5416718-0.75
		c0.4791565-0.5416718,0.3541565-0.4375,0.7083282-0.9583359"/>
	<path id="XMLID_16_" class="st0" d="M216.6549835,67.9938736c-0.7083282-0.0506439-1.2083282-0.279808-2-0.1756439
		c-0.7916718,0.1041718-1.2916718,0.0208359-1.7916718,0.4583359s-0.7708282,0.5208359-1.0416565,1.2916641
		c-0.2708435,0.7708359-0.5208435,1.1875-0.5416718,1.875s-0.3333282,0.9375,0,1.625s0.2708282,0.6041718,0.8333282,1.0416718
		s0.875,0.5833282,0.875,0.5833282"/>
	<path id="XMLID_15_" class="st0" d="M214.3216553,74.9849014c1.0625,0.25,1.75,0.0416641,2.5416565,0.5416641
		c0.7916718,0.5,1.2083435,0.9166641,1.2083435,0.9166641"/>
	<path id="XMLID_17_" class="st0" d="M219.1549835,80.0682297c-0.0416718,0.8541718-0.0208282,0.8125-0.4166718,1.5
		c-0.3958282,0.6875-0.1458282,0.6666718-0.9583282,1.0833359s-1.0833282,0.5-1.5833282,0.6666641
		c-0.5,0.1666718-1.625,0.5416718-1.625,0.5416718"/>
	<path id="XMLID_18_" class="st0" d="M217.3216553,76.2349014c-1.0833435,0.0208282-1.5625-0.1041718-2.4166718,0.2083282
		s-1.2916718,0.1458359-1.75,0.8333359s-0.6666718,0.7083359-0.9583282,1.375c-0.2916718,0.6666641-0.2083435,1.5833359,0,2.125
		c0.2083282,0.5416641,0.5416565,0.8541641,1.0833282,1.1875s1.1666718,0.2708359,1.875,0.2708359
		s0.3958282,0.0509644,1.2916718,0.0046463c0.8958282-0.0463181,2.125,0.0194473,2.125,0.0194473"/>
	<path id="XMLID_20_" class="st0" d="M192.5612335,74.0578156c-0.609375,0.65625-1.140625,1.09375-1.3125,1.78125
		s-0.34375,0.890625-0.25,1.71875s0.078125,0.90625,0.34375,1.5s0.40625,0.65625,0.78125,1.28125s0.328125,0.765625,0.78125,1.28125
		s0.53125,0.65625,0.875,1.09375s0.9573669,0.999527,0.9573669,0.999527"/>
	<path id="XMLID_21_" class="st0" d="M212.4883118,84.1932297c-0.6041565,0.6666718-1.1234741,1.4427109-1.3612213,2.0833359
		c-0.2377319,0.640625-0.2153778,1.078125,0,1.53125c0.2153931,0.453125,0.2258148,0.734375,0.5955963,1.15625
		c0.3697968,0.421875,0.4114685,0.5625,0.765625,0.84375c0.3541718,0.28125,0.8816833,0.6555328,0.8816833,0.6555328"/>
	<path id="XMLID_22_" class="st0" d="M193.8424835,62.3994675c-1.0625-1.0916519-1.625-1.0604019-2-2.4979019
		s-0.53125-2.46875-0.1875-3.53125s0.375-1.734375,1.1875-2.59375s1.3125-1.03125,2.28125-1.5625s1.25-0.703125,2.0625-1.03125
		s0.734375-0.328125,1.59375-0.375s0.546875-0.0625,1.5,0s1.6499023,0.15625,2.7312012,0.59375s1.2531738,0.5,2.3312988,0.8125
		s1.703125,0.453125,2.84375,1s1.515625,0.734375,2.375,0.96875s1.3125,0.21875,2.125,0.21875s2.5-0.09375,2.5-0.09375"/>
	<path id="XMLID_19_" class="st0" d="M221.2174835,88.9640656c0.6875-1.1875,1.03125-1.4375,1-2.6875
		s0.0451813-2.0833359,0.0451813-2.0833359"/>
	<path id="XMLID_24_" class="st0" d="M199.8216553,50.9848976c0.8958282,0.9791679,1.4791565,1.5833359,2.3333282,2.0833359
		s1.4166718,0.875,2.3333282,1.5c0.9166718,0.625,1.375,0.75,2.375,0.9583321s1.4791718,0.4791679,2.625,0.5625
		c1.1458435,0.0833321,1.5208435,0.2587624,2.2083435,0.4939651s1.0833282,0.3393669,1.9166565,0.7768669
		c0.8333435,0.4375,2.2386322,1.2533417,2.2386322,1.2533417"/>
	<path id="XMLID_23_" class="st0" d="M210.4883118,65.9432297c-0.75-1.0208282-1.1666565-1.75-1.1666565-2.6666641
		c0-0.9166679-0.3333435-1.375,0.1666565-2.1666679c0.5-0.7916641,0.9234009-1.0208321,1.6387787-1.1666641
		c0.7153931-0.1458359,1.1945648-0.2291679,2.1528931-0.25c0.9583282-0.0208359,0.8541718-0.0833359,1.5416718,0
		c0.6875,0.0833321,0.9583282,0.125,0.9583282,0.125"/>
	<path id="XMLID_25_" class="st0" d="M255.5299835,75.6932297c0.3333282-0.75,0.4999847-1.1875,1.2083282-1.3333282
		c0.7083435-0.1458359,0.9583435-0.1479111,1.2916565,0.3010406c0.3333435,0.4489594,0.9375,1.3656235,1.041687,2.3656235
		c0.1041565,1,0.2291565,2.3333359,0.375,3.4583359c0.145813,1.125,0.25,1.4443893,0.2916565,2.4826126
		c0.0416565,1.0382156-0.0833435,1.9132156,0,3.2673874c0.0833435,1.3541641,0.2291565,2.1875,0.2083435,3.1666641
		c-0.0208435,0.9791641-0.104187,1.8958359-0.166687,2.875s-0.145813,2.1666641-0.083313,3.4166641
		s0.083313,1.625-0.0833435,2.6666718c-0.1666565,1.0416641-0.25,1.7708282-0.5416565,2.8333282
		c-0.291687,1.0625-0.541687,1.5208359-0.916687,2.5833359s-0.583313,1.875-0.958313,2.8333359
		c-0.375,0.9583282-0.6458435,1.7083282-1.125,2.75c-0.4791718,1.0416641-0.5,1.8541641-1.0416718,2.4166641
		s-0.4791718,0.8333359-1.375,0.875s-1.2708282-1.125-1.2916718-2.0416641c-0.0208282-0.9166718,0-2.7926483,0-2.7926483"/>
	<path id="XMLID_27_" class="st0" d="M261.5716553,113.0265656c-1.3333435,0.0208359-1.6875,0-2.791687,0
		c-1.1041565,0-1.3822327,0.0833359-2.6286011,0c-1.2463837-0.0833359-2.4963837-0.375-2.4963837-0.375"/>
	<path id="XMLID_26_" class="st0" d="M261.4049683,74.5265656c-0.96875-0.03125-1.4375-0.1797867-2.15625-0.253952
		c-0.71875-0.074173-2.0657043,0.0108719-2.0657043,0.0108719"/>
	<path id="XMLID_10_" class="st0" d="M240.7381287,65.7696915c6.6788635,2.4999924,10.6945648,5.711853,10.6945648,9.21521
		c0,7.972084-20.7939148,14.4347305-46.4445038,14.4347305s-46.444519-6.4626465-46.444519-14.4347305
		c0-6.3167496,13.0550842-11.6858292,31.2369843-13.6431694c0.8634186-0.0929489,1.7384033-0.1782074,2.6240997-0.2555046"/>
	<line id="XMLID_28_" class="st0" x1="204.9881897" y1="92.1058121" x2="204.9881897" y2="118.2765656"/>
	<polyline id="XMLID_11_" class="st0" points="204.9881897,6.2529311 204.9881897,49.0262833 204.9881897,54.7993736 	"/>
	<polygon id="XMLID_2_" class="st1" points="168.9937897,86.9316101 170.3257904,82.2589951 176.9195709,86.6648026 	"/>
	<polygon id="XMLID_29_" class="st1" points="207.417572,9.9582968 202.5588074,9.9589386 204.9871826,2.4096251 	"/>
</g>
<g id="XMLID_3_">
	<g id="XMLID_4_">
		<path id="XMLID_63_" class="st1" d="M7.6088867,110.8183594H4.8178711l-0.3320313,0.7675781
			c-0.1088867,0.2558594-0.1635742,0.4677734-0.1635742,0.6337891c0,0.2216797,0.0893555,0.3837891,0.2680664,0.4892578
			c0.1049805,0.0615234,0.3632813,0.1083984,0.7753906,0.1396484v0.2148438h-2.628418v-0.2148438
			c0.2836914-0.0429688,0.5166016-0.1601563,0.6992188-0.3525391c0.1826172-0.1914063,0.4082031-0.5878906,0.6762695-1.1894531
			l2.8261719-6.2929688h0.1108398l2.8500977,6.4677734c0.2714844,0.6123047,0.4951172,0.9980469,0.6699219,1.1572266
			c0.1318359,0.1201172,0.3183594,0.1904297,0.5595703,0.2099609v0.2148438H7.3061523v-0.2148438h0.1582031
			c0.3066406,0,0.5214844-0.0429688,0.6464844-0.1279297c0.0849609-0.0625,0.1279297-0.1513672,0.1279297-0.2675781
			c0-0.0703125-0.0117188-0.1416016-0.0351563-0.2158203c-0.0078125-0.0351563-0.0664063-0.1796875-0.1748047-0.4355469
			L7.6088867,110.8183594z M7.4116211,110.3876953l-1.1777344-2.7158203l-1.2119141,2.7158203H7.4116211z"/>
	</g>
</g>
<g id="XMLID_5_">
	<g id="XMLID_6_">
		<path id="XMLID_59_" class="st1" d="M106.4941406,121.0361328c0.7617188,0.1738281,1.296875,0.3857422,1.6044922,0.6337891
			c0.4414063,0.3525391,0.6630859,0.8105469,0.6630859,1.3720703c0,0.59375-0.2431641,1.0839844-0.7285156,1.4716797
			c-0.5957031,0.4697266-1.4619141,0.7041016-2.5981445,0.7041016h-4.078125v-0.2148438
			c0.3710938,0,0.6225586-0.0341797,0.7548828-0.1025391c0.1318359-0.0673828,0.2246094-0.1552734,0.277832-0.2646484
			c0.0537109-0.1083984,0.0800781-0.3759766,0.0800781-0.8027344v-5.1181641c0-0.4267578-0.0263672-0.6953125-0.0800781-0.8056641
			c-0.0532227-0.1103516-0.1469727-0.1982422-0.2807617-0.2646484c-0.1342773-0.0654297-0.3847656-0.0986328-0.7519531-0.0986328
			v-0.2148438h3.847168c0.9199219,0,1.5703125,0.0800781,1.953125,0.2412109s0.6845703,0.4013672,0.90625,0.7207031
			c0.2207031,0.3203125,0.3310547,0.6601563,0.3310547,1.0214844c0,0.3798828-0.1396484,0.7177734-0.4199219,1.0146484
			S107.2011719,120.8613281,106.4941406,121.0361328z M104.340332,121.3320313v2.5302734l-0.0058594,0.2910156
			c0,0.2089844,0.0541992,0.3671875,0.1625977,0.4736328c0.1083984,0.1074219,0.269043,0.1601563,0.4824219,0.1601563
			c0.3154297,0,0.6064453-0.0683594,0.8730469-0.2060547s0.4707031-0.3378906,0.6123047-0.5996094
			c0.1425781-0.2617188,0.2128906-0.5527344,0.2128906-0.875c0-0.3681641-0.0869141-0.6992188-0.2597656-0.9921875
			c-0.1738281-0.2919922-0.4130859-0.4970703-0.7158203-0.6132813
			C105.3974609,121.3847656,104.9438477,121.328125,104.340332,121.3320313z M104.340332,120.8779297
			c0.5600586,0,0.9736328-0.0615234,1.2397461-0.1855469c0.2666016-0.1240234,0.4707031-0.2978516,0.6123047-0.5234375
			c0.1425781-0.2246094,0.2138672-0.5117188,0.2138672-0.8603516c0-0.3496094-0.0703125-0.6347656-0.2109375-0.8583984
			c-0.1396484-0.2226563-0.3398438-0.3925781-0.6005859-0.5087891c-0.2602539-0.1162109-0.6787109-0.1728516-1.2543945-0.1689453
			V120.8779297z"/>
	</g>
</g>
<g id="XMLID_7_">
	<g id="XMLID_30_">
		<path id="XMLID_57_" class="st1" d="M73.9501953,1.8427734v2.75h-0.2304688
			C73.5458984,3.875,73.2226563,3.3251953,72.7490234,2.9428711s-1.0107422-0.5732422-1.6103516-0.5732422
			c-0.5009766,0-0.9604492,0.1420898-1.3789063,0.4267578c-0.4179688,0.2851563-0.7241211,0.6577148-0.9174805,1.1176758
			C68.59375,4.503418,68.4697266,5.1586914,68.4697266,5.8803711c0,0.7099609,0.0908203,1.3564453,0.2719727,1.9394531
			c0.1816406,0.5830078,0.4658203,1.0244141,0.8525391,1.3222656c0.3867188,0.2988281,0.8881836,0.4482422,1.503418,0.4482422
			c0.5048828,0,0.9677734-0.109375,1.3876953-0.328125c0.4208984-0.21875,0.8632813-0.5947266,1.3291016-1.1289063v0.6845703
			c-0.4501953,0.4638672-0.9189453,0.8007813-1.40625,1.0087891c-0.4873047,0.2089844-1.0556641,0.3134766-1.7070313,0.3134766
			c-0.8564453,0-1.6171875-0.1699219-2.2817383-0.5097656c-0.6650391-0.3388672-1.1782227-0.8261719-1.5390625-1.4619141
			s-0.5415039-1.3134766-0.5415039-2.03125c0-0.7563477,0.2001953-1.4741211,0.6005859-2.152832
			s0.9414063-1.2055664,1.6220703-1.5795898c0.6806641-0.3745117,1.4033203-0.5620117,2.1689453-0.5620117
			c0.5644531,0,1.1601563,0.1210938,1.7880859,0.362793c0.3623047,0.140625,0.59375,0.2109375,0.6923828,0.2109375
			c0.1259766,0,0.2353516-0.0458984,0.328125-0.1376953s0.1533203-0.2368164,0.1806641-0.4360352H73.9501953z"/>
	</g>
</g>
<path id="XMLID_52_" class="st0" d="M101.1022949,75.9849014c-0.4791641-0.6041718-0.1666641,0.375-1-1.4583359
	s-1.5-3.5833359-2.8333359-5.6666641c-1.3333282-2.0833359-2.0833282-3.0833359-3.5-5.6666679
	c-1.4166641-2.5833359-2-3.6666679-3.1666641-5.8333359c-1.1666641-2.1666641-3.0833359-3.6666641-5-5.8333321
	s-3.3333359-3.5833321-5.6666641-5.6666679c-2.3333359-2.0833321-4.0833359-4.4166641-6-6.8333321
	c-1.9166718-2.4166679-2.5-3.6666679-4-5.8333321c-1.2722168-1.8376484-1.8850327-4.0349693-3.8213043-6.3885937
	c-0.3466797-0.4214039-0.7357864-0.8478165-1.1786957-1.2780743c0,0-2.0625038,0.3125-2.8750038,1
	s-1.5625,1.354166-2.0416641,2.416666c-0.4791679,1.0625-0.5,1.9791679-0.5,2.9166679
	c0,0.9374981-0.0208359,1.770834,0.4583321,2.958334s0.875,2.375,1.375,3.4166641
	c0.5,1.0416679,1.4375,3.3333359,2.4166679,5.0833359s2.2916679,4.3541641,3.0833321,5.75
	c0.7916641,1.3958321,1.1458359,1.8541641,1.875,3.1666641s2.0833359,3.4166679,2.0833359,3.4166679
	s-0.5625,3.2916679-0.5,4.1666679s0.1041641,2.4791641,0.2083282,3.5833321c0.1041718,1.1041641,0.125,1.7083359,0.6666718,3.5
	c0.5416641,1.7916641,0.8333282,2.875,1.125,4.5c0.2916641,1.625,0.25,2.2083359,0.5,3.7083359s-0.375,1.9375,0.5833282,3.7916641
	c0.9583359,1.8541641,1.7708359,3.6458359,2.5,4.375c0.7291718,0.7291641,2.5416718,2.6458359,3.4583359,3.375"/>
<path id="XMLID_51_" class="st0" d="M66.0397949,27.0057316c0,0-0.2395859,0.5416679-0.1666641,1.1041679
	c0.0729141,0.5625,0.15625,1.2708321,0.4166641,1.916666s0.3541641,1.21875,0.8333359,1.770834
	c0.4791641,0.552084,0.8645782,0.760416,1.3541641,0.791666s0.7916641,0,0.7916641,0"/>
<path id="XMLID_50_" class="st0" d="M99.8522949,73.3599014c0,0,1.7083359,1.2083282,3.375,1.7083282
	s2.1666641,0.6875,3.5,0.8333359s1.1458359-0.0208359,2.625,0s1.8541641,0.0583572,3,0.0604248"/>
<path id="XMLID_49_" class="st0" d="M110.3731308,109.1515656c-3.46875-1.34375-5.34375-2.09375-8.125-2.8125
	s-4.1875-1.625-7.375-2.0625s-3.71875-0.28125-7-0.4375s-4.375,0.09375-7.1875,0s-5.15625-0.0625-8.125-1s-4.09375-1.0625-6.875-2.5
	c-2.7812538-1.4375-5.0376015-2.625-8.1438026-4.4375s-3.2312012-2.3125-5.6062012-4s-3.875-2.59375-4.0625-4.3125
	s-0.34375-2.5625,0-3.125s0.90625-0.84375,2.3125-0.75s1.71875,0.1207199,3.125-0.0177689
	c1.40625-0.1384811,1.59375-0.5134811,3.6875-0.6072311s2.78125-0.21875,4.4375,0s2.1875,0.28125,4.1250038,0.6875
	c1.9375,0.40625,2.0625,0.09375,3.4375,0.3125s1.875,0.78125,2.0625,1.5625s0.125,1.0625,0.0625,1.9375s-0.4375,1.3125-1.125,1.9375
	s-1.4375,0.625-2.5625,1.125s-1.96875,0.6875-3.4375038,0.75c-1.46875,0.0625-2.09375,0.3125-3.625,0.5625
	s-1.59375,0.28125-3.125,0.4375s-2.8125,0.328125-3.75,0.375"/>
<path id="XMLID_48_" class="st0" d="M70.7272949,66.2349014c-0.5833359,0-0.625,0.0416641-1.2083359-0.0416718
	c-0.5833282-0.0833282-0.6041641-0.0416641-1.5-0.0416641c-0.8958282,0-2.8125-0.0208359-3.9166641,0
	c-1.1041679,0.0208359-3.4375,0.0208359-4-0.25s-1.7291679-0.6041641-3.3333321-1.1666641
	c-1.6041679-0.5625-3.4583359-1.0000038-4.5416679-1.3333359s-2.6666679-0.9791679-3.3333321-1
	c-0.6666679-0.0208321-1.2916679,0.1041679-2.2083359,0.7916679c-0.9166641,0.6875-1.6458321,1.2291679-2.125,2.2916679
	c-0.4791641,1.0625-0.1458321,2.125,0,3.6666641c0.1458359,1.5416641,0.8654823,3.1361771,2.625,4.625
	c0.2708359,0.2291641,2.125,0.3958359,3.25,0.5s2.1875,0.375,3.4166679,0.375s2.3374023,0,3.6895332,0
	c1.3521347,0,2.1854668-0.0625,3.3521347,0.2083359c1.1666641,0.2708282,2.5,0.5625,3.7499962,0.4583282
	c1.25-0.1041641,1.6041718-0.2916641,2.5416718-0.375c0.9375-0.0833282,1.9583282-0.1875,2.875-0.4583282
	c0.9166641-0.2708359,1.0625-0.2083359,1.5416641-0.75c0.4791641-0.5416718,0.3541641-0.4375,0.7083359-0.9583359"/>
<path id="XMLID_47_" class="st0" d="M71.1856308,67.9938736c-0.7083359-0.0506439-1.2083359-0.279808-2-0.1756439
	c-0.7916718,0.1041718-1.2916718,0.0208359-1.7916718,0.4583359s-0.7708282,0.5208359-1.0416641,1.2916641
	c-0.2708359,0.7708359-0.5208359,1.1875-0.5416641,1.875c-0.0208359,0.6875-0.3333359,0.9375,0,1.625
	c0.3333282,0.6875,0.2708282,0.6041718,0.8333282,1.0416718s0.875,0.5833282,0.875,0.5833282"/>
<path id="XMLID_46_" class="st0" d="M68.8522949,74.9849014c1.0625,0.25,1.75,0.0416641,2.5416641,0.5416641
	c0.7916718,0.5,1.2083359,0.9166641,1.2083359,0.9166641"/>
<path id="XMLID_45_" class="st0" d="M73.6856308,80.0682297c-0.0416718,0.8541718-0.0208359,0.8125-0.4166718,1.5
	c-0.3958282,0.6875-0.1458282,0.6666718-0.9583282,1.0833359s-1.0833359,0.5-1.5833359,0.6666641
	c-0.5,0.1666718-1.625,0.5416718-1.625,0.5416718"/>
<path id="XMLID_44_" class="st0" d="M71.8522949,76.2349014c-1.0833359,0.0208282-1.5625-0.1041718-2.4166641,0.2083282
	c-0.8541718,0.3125-1.2916718,0.1458359-1.75,0.8333359c-0.4583359,0.6875-0.6666718,0.7083359-0.9583359,1.375
	s-0.2083359,1.5833359,0,2.125s0.5416641,0.8541641,1.0833359,1.1875c0.5416641,0.3333359,1.1666641,0.2708359,1.875,0.2708359
	c0.7083282,0,0.3958282,0.0509644,1.2916641,0.0046463s2.125,0.0194473,2.125,0.0194473"/>
<path id="XMLID_43_" class="st0" d="M47.091877,74.0578156c-0.609375,0.65625-1.140625,1.09375-1.3125,1.78125
	s-0.34375,0.890625-0.25,1.71875s0.078125,0.90625,0.34375,1.5s0.40625,0.65625,0.78125,1.28125s0.328125,0.765625,0.78125,1.28125
	s0.53125,0.65625,0.875,1.09375s0.9573669,0.999527,0.9573669,0.999527"/>
<path id="XMLID_42_" class="st0" d="M67.018959,84.1932297c-0.6041641,0.6666718-1.1234818,1.4427109-1.3612213,2.0833359
	c-0.2377319,0.640625-0.2153854,1.078125,0,1.53125c0.2153931,0.453125,0.2258148,0.734375,0.5956039,1.15625
	s0.4114532,0.5625,0.7656174,0.84375c0.3541718,0.28125,0.8816757,0.6555328,0.8816757,0.6555328"/>
<path id="XMLID_41_" class="st0" d="M48.373127,62.3994675c-1.0625-1.0916519-1.625-1.0604019-2-2.4979019
	s-0.53125-2.46875-0.1875-3.53125s0.375-1.734375,1.1875-2.59375s1.3125-1.03125,2.28125-1.5625s1.25-0.703125,2.0625-1.03125
	s0.734375-0.328125,1.59375-0.375s0.546875-0.0625,1.5,0s1.6499023,0.15625,2.7312012,0.59375s1.2531738,0.5,2.3312988,0.8125
	s1.703125,0.453125,2.84375,1s1.5156288,0.734375,2.3750038,0.96875s1.3125,0.21875,2.125,0.21875s2.5-0.09375,2.5-0.09375"/>
<path id="XMLID_40_" class="st0" d="M75.7481308,88.9640656c0.6875-1.1875,1.03125-1.4375,1-2.6875
	s0.0451813-2.0833359,0.0451813-2.0833359"/>
<path id="XMLID_39_" class="st0" d="M54.3522949,50.9848976c0.8958321,0.9791679,1.4791679,1.5833359,2.3333321,2.0833359
	c0.8541679,0.5,1.4166679,0.875,2.3333359,1.5c0.9166641,0.625,1.375,0.75,2.375,0.9583321s1.4791641,0.4791679,2.6249962,0.5625
	c1.1458359,0.0833321,1.5208359,0.2587624,2.2083359,0.4939651s1.0833359,0.3393669,1.9166641,0.7768669
	c0.8333359,0.4375,2.2386322,1.2533417,2.2386322,1.2533417"/>
<path id="XMLID_38_" class="st0" d="M65.018959,65.9432297c-0.75-1.0208282-1.1666641-1.75-1.1666641-2.6666641
	c0-0.9166679-0.3333321-1.375,0.1666641-2.1666679c0.5-0.7916641,0.9233932-1.0208321,1.6387787-1.1666641
	c0.7153931-0.1458359,1.1945572-0.2291679,2.1528931-0.25c0.9583282-0.0208359,0.8541641-0.0833359,1.5416641,0
	c0.6875,0.0833321,0.9583359,0.125,0.9583359,0.125"/>
<path id="XMLID_37_" class="st0" d="M110.0606308,75.6932297c0.3333282-0.75,0.5-1.1875,1.2083282-1.3333282
	c0.7083359-0.1458359,0.9583359-0.1479111,1.2916718,0.3010406c0.3333282,0.4489594,0.9375,1.3656235,1.0416641,2.3656235
	s0.2291641,2.3333359,0.375,3.4583359s0.25,1.4443893,0.2916641,2.4826126c0.0416718,1.0382156-0.0833282,1.9132156,0,3.2673874
	c0.0833359,1.3541641,0.2291718,2.1875,0.2083359,3.1666641s-0.1041641,1.8958359-0.1666641,2.875
	s-0.1458359,2.1666641-0.0833359,3.4166641s0.0833359,1.625-0.0833359,2.6666718
	c-0.1666641,1.0416641-0.25,1.7708282-0.5416641,2.8333282s-0.5416641,1.5208359-0.9166641,2.5833359
	s-0.5833359,1.875-0.9583359,2.8333359c-0.375,0.9583282-0.6458359,1.7083282-1.125,2.75
	c-0.4791641,1.0416641-0.5,1.8541641-1.0416641,2.4166641c-0.5416718,0.5625-0.4791718,0.8333359-1.375,0.875
	c-0.8958359,0.0416641-1.2708359-1.125-1.2916718-2.0416641c-0.0208282-0.9166718,0-2.7926483,0-2.7926483"/>
<path id="XMLID_36_" class="st0" d="M116.1022949,113.0265656c-1.3333359,0.0208359-1.6875,0-2.7916641,0
	c-1.1041718,0-1.3822479,0.0833359-2.628624,0s-2.496376-0.375-2.496376-0.375"/>
<path id="XMLID_35_" class="st0" d="M115.9356308,74.5265656c-0.96875-0.03125-1.4375-0.1797867-2.15625-0.253952
	c-0.71875-0.074173-2.0657272,0.0108719-2.0657272,0.0108719"/>
<line id="XMLID_33_" class="st0" x1="59.5188293" y1="92.1058121" x2="59.5188293" y2="99.5734863"/>
<polyline id="XMLID_32_" class="st0" points="59.5188293,6.2529311 59.5188293,49.0262833 59.5188293,54.7993736 "/>
<polygon id="XMLID_31_" class="st1" points="61.9482117,9.9582968 57.089447,9.9589386 59.5178299,2.4096251 "/>
<line id="XMLID_34_" class="st2" x1="59.5188332" y1="99.5734863" x2="20.063118" y2="106.2356644"/>
<line id="XMLID_53_" class="st2" x1="59.5188332" y1="99.5734863" x2="91.3122787" y2="116.0308914"/>
<polygon id="XMLID_54_" class="st1" points="19.7097549,103.8455963 20.5086899,108.6382294 12.6629829,107.4832077 "/>
<polygon id="XMLID_55_" class="st1" points="90.1051865,118.2404327 92.4224701,113.9698639 97.8989487,119.7054901 "/>
<g id="XMLID_1_">
</g>
<g id="XMLID_66_">
</g>
<g id="XMLID_67_">
</g>
<g id="XMLID_68_">
</g>
<g id="XMLID_69_">
</g>
<g id="XMLID_70_">
</g>
</svg>
